# Blender 4.4.1
# www.blender.org
o Cylinder
v 0.039744 0.000000 -0.080000
v 0.039744 0.000000 0.080000
v 0.038980 -0.007754 -0.080000
v 0.038980 -0.007754 0.080000
v 0.036718 -0.015209 -0.080000
v 0.036718 -0.015209 0.080000
v 0.033046 -0.022080 -0.080000
v 0.033046 -0.022080 0.080000
v 0.028103 -0.028103 -0.080000
v 0.028103 -0.028103 0.080000
v 0.022080 -0.033046 -0.080000
v 0.022080 -0.033046 0.080000
v 0.015209 -0.036718 -0.080000
v 0.015209 -0.036718 0.080000
v 0.007754 -0.038980 -0.080000
v 0.007754 -0.038980 0.080000
v 0.000000 -0.039744 -0.080000
v 0.000000 -0.039744 0.080000
v -0.007754 -0.038980 -0.080000
v -0.007754 -0.038980 0.080000
v -0.015209 -0.036718 -0.080000
v -0.015209 -0.036718 0.080000
v -0.022080 -0.033046 -0.080000
v -0.022080 -0.033046 0.080000
v -0.028103 -0.028103 -0.080000
v -0.028103 -0.028103 0.080000
v -0.033046 -0.022080 -0.080000
v -0.033046 -0.022080 0.080000
v -0.036718 -0.015209 -0.080000
v -0.036718 -0.015209 0.080000
v -0.038980 -0.007754 -0.080000
v -0.038980 -0.007754 0.080000
v -0.039744 0.000000 -0.080000
v -0.039744 0.000000 0.080000
v -0.038980 0.007754 -0.080000
v -0.038980 0.007754 0.080000
v -0.036718 0.015209 -0.080000
v -0.036718 0.015209 0.080000
v -0.033046 0.022080 -0.080000
v -0.033046 0.022080 0.080000
v -0.028103 0.028103 -0.080000
v -0.028103 0.028103 0.080000
v -0.022080 0.033046 -0.080000
v -0.022080 0.033046 0.080000
v -0.015209 0.036718 -0.080000
v -0.015209 0.036718 0.080000
v -0.007754 0.038980 -0.080000
v -0.007754 0.038980 0.080000
v 0.000000 0.039744 -0.080000
v 0.000000 0.039744 0.080000
v 0.007754 0.038980 -0.080000
v 0.007754 0.038980 0.080000
v 0.015209 0.036718 -0.080000
v 0.015209 0.036718 0.080000
v 0.022080 0.033046 -0.080000
v 0.022080 0.033046 0.080000
v 0.028103 0.028103 -0.080000
v 0.028103 0.028103 0.080000
v 0.033046 0.022080 -0.080000
v 0.033046 0.022080 0.080000
v 0.036718 0.015209 -0.080000
v 0.036718 0.015209 0.080000
v 0.038980 0.007754 -0.080000
v 0.038980 0.007754 0.080000
v 0.039696 -0.001950 -0.080000
v 0.039552 -0.003896 -0.080000
v 0.039314 -0.005832 -0.080000
v 0.039314 -0.005832 0.080000
v 0.039552 -0.003896 0.080000
v 0.039696 -0.001950 0.080000
v 0.039744 0.000000 -0.040000
v 0.039744 0.000000 0.000000
v 0.039744 0.000000 0.040000
v 0.038980 -0.007754 0.040000
v 0.038980 -0.007754 0.000000
v 0.038980 -0.007754 -0.040000
v 0.038553 -0.009657 -0.080000
v 0.038032 -0.011537 -0.080000
v 0.037420 -0.013389 -0.080000
v 0.037420 -0.013389 0.080000
v 0.038032 -0.011537 0.080000
v 0.038553 -0.009657 0.080000
v 0.036718 -0.015209 0.040000
v 0.036718 -0.015209 0.000000
v 0.036718 -0.015209 -0.040000
v 0.035928 -0.016993 -0.080000
v 0.035051 -0.018735 -0.080000
v 0.034089 -0.020432 -0.080000
v 0.034089 -0.020432 0.080000
v 0.035051 -0.018735 0.080000
v 0.035928 -0.016993 0.080000
v 0.033046 -0.022080 0.040000
v 0.033046 -0.022080 0.000000
v 0.033046 -0.022080 -0.040000
v 0.031922 -0.023675 -0.080000
v 0.030722 -0.025213 -0.080000
v 0.029448 -0.026690 -0.080000
v 0.029448 -0.026690 0.080000
v 0.030722 -0.025213 0.080000
v 0.031922 -0.023675 0.080000
v 0.028103 -0.028103 0.040000
v 0.028103 -0.028103 0.000000
v 0.028103 -0.028103 -0.040000
v 0.026690 -0.029448 -0.080000
v 0.025213 -0.030722 -0.080000
v 0.023675 -0.031922 -0.080000
v 0.023675 -0.031922 0.080000
v 0.025213 -0.030722 0.080000
v 0.026690 -0.029448 0.080000
v 0.022080 -0.033046 0.040000
v 0.022080 -0.033046 0.000000
v 0.022080 -0.033046 -0.040000
v 0.020432 -0.034089 -0.080000
v 0.018735 -0.035051 -0.080000
v 0.016993 -0.035928 -0.080000
v 0.016993 -0.035928 0.080000
v 0.018735 -0.035051 0.080000
v 0.020432 -0.034089 0.080000
v 0.015209 -0.036718 0.040000
v 0.015209 -0.036718 0.000000
v 0.015209 -0.036718 -0.040000
v 0.013389 -0.037420 -0.080000
v 0.011537 -0.038032 -0.080000
v 0.009657 -0.038553 -0.080000
v 0.009657 -0.038553 0.080000
v 0.011537 -0.038032 0.080000
v 0.013389 -0.037420 0.080000
v 0.007754 -0.038980 0.040000
v 0.007754 -0.038980 0.000000
v 0.007754 -0.038980 -0.040000
v 0.005832 -0.039314 -0.080000
v 0.003896 -0.039552 -0.080000
v 0.001950 -0.039696 -0.080000
v 0.001950 -0.039696 0.080000
v 0.003896 -0.039552 0.080000
v 0.005832 -0.039314 0.080000
v -0.000000 -0.039744 0.040000
v 0.000000 -0.039744 0.000000
v 0.000000 -0.039744 -0.040000
v -0.001950 -0.039696 -0.080000
v -0.003896 -0.039552 -0.080000
v -0.005832 -0.039314 -0.080000
v -0.005832 -0.039314 0.080000
v -0.003896 -0.039552 0.080000
v -0.001950 -0.039696 0.080000
v -0.007754 -0.038980 0.040000
v -0.007754 -0.038980 0.000000
v -0.007754 -0.038980 -0.040000
v -0.009657 -0.038553 -0.080000
v -0.011537 -0.038032 -0.080000
v -0.013389 -0.037420 -0.080000
v -0.013389 -0.037420 0.080000
v -0.011537 -0.038032 0.080000
v -0.009657 -0.038553 0.080000
v -0.015209 -0.036718 0.040000
v -0.015209 -0.036718 0.000000
v -0.015209 -0.036718 -0.040000
v -0.016993 -0.035928 -0.080000
v -0.018735 -0.035051 -0.080000
v -0.020432 -0.034089 -0.080000
v -0.020432 -0.034089 0.080000
v -0.018735 -0.035051 0.080000
v -0.016993 -0.035928 0.080000
v -0.022080 -0.033046 0.040000
v -0.022080 -0.033046 0.000000
v -0.022080 -0.033046 -0.040000
v -0.023675 -0.031922 -0.080000
v -0.025213 -0.030722 -0.080000
v -0.026690 -0.029448 -0.080000
v -0.026690 -0.029448 0.080000
v -0.025213 -0.030722 0.080000
v -0.023675 -0.031922 0.080000
v -0.028103 -0.028103 0.040000
v -0.028103 -0.028103 0.000000
v -0.028103 -0.028103 -0.040000
v -0.029448 -0.026690 -0.080000
v -0.030722 -0.025213 -0.080000
v -0.031922 -0.023675 -0.080000
v -0.031922 -0.023675 0.080000
v -0.030722 -0.025213 0.080000
v -0.029448 -0.026690 0.080000
v -0.033046 -0.022080 0.040000
v -0.033046 -0.022080 0.000000
v -0.033046 -0.022080 -0.040000
v -0.034089 -0.020432 -0.080000
v -0.035051 -0.018735 -0.080000
v -0.035928 -0.016993 -0.080000
v -0.035928 -0.016993 0.080000
v -0.035051 -0.018735 0.080000
v -0.034089 -0.020432 0.080000
v -0.036718 -0.015209 0.040000
v -0.036718 -0.015209 0.000000
v -0.036718 -0.015209 -0.040000
v -0.037420 -0.013389 -0.080000
v -0.038032 -0.011537 -0.080000
v -0.038553 -0.009657 -0.080000
v -0.038553 -0.009657 0.080000
v -0.038032 -0.011537 0.080000
v -0.037420 -0.013389 0.080000
v -0.038980 -0.007754 0.040000
v -0.038980 -0.007754 0.000000
v -0.038980 -0.007754 -0.040000
v -0.039314 -0.005832 -0.080000
v -0.039552 -0.003896 -0.080000
v -0.039696 -0.001950 -0.080000
v -0.039696 -0.001950 0.080000
v -0.039552 -0.003896 0.080000
v -0.039314 -0.005832 0.080000
v -0.039744 0.000000 0.040000
v -0.039744 0.000000 0.000000
v -0.039744 0.000000 -0.040000
v -0.039696 0.001950 -0.080000
v -0.039552 0.003896 -0.080000
v -0.039314 0.005832 -0.080000
v -0.039314 0.005832 0.080000
v -0.039552 0.003896 0.080000
v -0.039696 0.001950 0.080000
v -0.038980 0.007754 0.040000
v -0.038980 0.007754 0.000000
v -0.038980 0.007754 -0.040000
v -0.038553 0.009657 -0.080000
v -0.038032 0.011537 -0.080000
v -0.037420 0.013389 -0.080000
v -0.037420 0.013389 0.080000
v -0.038032 0.011537 0.080000
v -0.038553 0.009657 0.080000
v -0.036718 0.015209 0.040000
v -0.036718 0.015209 0.000000
v -0.036718 0.015209 -0.040000
v -0.035928 0.016993 -0.080000
v -0.035051 0.018735 -0.080000
v -0.034089 0.020432 -0.080000
v -0.034089 0.020432 0.080000
v -0.035051 0.018735 0.080000
v -0.035928 0.016993 0.080000
v -0.033046 0.022080 0.040000
v -0.033046 0.022080 0.000000
v -0.033046 0.022080 -0.040000
v -0.031922 0.023675 -0.080000
v -0.030722 0.025213 -0.080000
v -0.029448 0.026690 -0.080000
v -0.029448 0.026690 0.080000
v -0.030722 0.025213 0.080000
v -0.031922 0.023675 0.080000
v -0.028103 0.028103 0.040000
v -0.028103 0.028103 0.000000
v -0.028103 0.028103 -0.040000
v -0.026690 0.029448 -0.080000
v -0.025213 0.030722 -0.080000
v -0.023675 0.031922 -0.080000
v -0.023675 0.031922 0.080000
v -0.025213 0.030722 0.080000
v -0.026690 0.029448 0.080000
v -0.022080 0.033046 0.040000
v -0.022080 0.033046 0.000000
v -0.022080 0.033046 -0.040000
v -0.020432 0.034089 -0.080000
v -0.018735 0.035051 -0.080000
v -0.016993 0.035928 -0.080000
v -0.016993 0.035928 0.080000
v -0.018735 0.035051 0.080000
v -0.020432 0.034089 0.080000
v -0.015209 0.036718 0.040000
v -0.015209 0.036718 0.000000
v -0.015209 0.036718 -0.040000
v -0.013389 0.037420 -0.080000
v -0.011537 0.038032 -0.080000
v -0.009657 0.038553 -0.080000
v -0.009657 0.038553 0.080000
v -0.011537 0.038032 0.080000
v -0.013389 0.037420 0.080000
v -0.007754 0.038980 0.040000
v -0.007754 0.038980 0.000000
v -0.007754 0.038980 -0.040000
v -0.005832 0.039314 -0.080000
v -0.003896 0.039552 -0.080000
v -0.001950 0.039696 -0.080000
v -0.001950 0.039696 0.080000
v -0.003896 0.039552 0.080000
v -0.005832 0.039314 0.080000
v 0.000000 0.039744 0.040000
v 0.000000 0.039744 0.000000
v 0.000000 0.039744 -0.040000
v 0.001950 0.039696 -0.080000
v 0.003896 0.039552 -0.080000
v 0.005832 0.039314 -0.080000
v 0.005832 0.039314 0.080000
v 0.003896 0.039552 0.080000
v 0.001950 0.039696 0.080000
v 0.007754 0.038980 0.040000
v 0.007754 0.038980 0.000000
v 0.007754 0.038980 -0.040000
v 0.009657 0.038553 -0.080000
v 0.011537 0.038032 -0.080000
v 0.013389 0.037420 -0.080000
v 0.013389 0.037420 0.080000
v 0.011537 0.038032 0.080000
v 0.009657 0.038553 0.080000
v 0.015209 0.036718 0.040000
v 0.015209 0.036718 0.000000
v 0.015209 0.036718 -0.040000
v 0.016993 0.035928 -0.080000
v 0.018735 0.035051 -0.080000
v 0.020432 0.034089 -0.080000
v 0.020432 0.034089 0.080000
v 0.018735 0.035051 0.080000
v 0.016993 0.035928 0.080000
v 0.022080 0.033046 0.040000
v 0.022080 0.033046 0.000000
v 0.022080 0.033046 -0.040000
v 0.023675 0.031922 -0.080000
v 0.025213 0.030722 -0.080000
v 0.026690 0.029448 -0.080000
v 0.026690 0.029448 0.080000
v 0.025213 0.030722 0.080000
v 0.023675 0.031922 0.080000
v 0.028103 0.028103 0.040000
v 0.028103 0.028103 0.000000
v 0.028103 0.028103 -0.040000
v 0.029448 0.026690 -0.080000
v 0.030722 0.025213 -0.080000
v 0.031922 0.023675 -0.080000
v 0.031922 0.023675 0.080000
v 0.030722 0.025213 0.080000
v 0.029448 0.026690 0.080000
v 0.033046 0.022080 0.040000
v 0.033046 0.022080 0.000000
v 0.033046 0.022080 -0.040000
v 0.034089 0.020432 -0.080000
v 0.035051 0.018735 -0.080000
v 0.035928 0.016993 -0.080000
v 0.035928 0.016993 0.080000
v 0.035051 0.018735 0.080000
v 0.034089 0.020432 0.080000
v 0.036718 0.015209 0.040000
v 0.036718 0.015209 0.000000
v 0.036718 0.015209 -0.040000
v 0.037420 0.013389 -0.080000
v 0.038032 0.011537 -0.080000
v 0.038553 0.009657 -0.080000
v 0.038553 0.009657 0.080000
v 0.038032 0.011537 0.080000
v 0.037420 0.013389 0.080000
v 0.038980 0.007754 0.040000
v 0.038980 0.007754 0.000000
v 0.038980 0.007754 -0.040000
v 0.039314 0.005832 -0.080000
v 0.039552 0.003896 -0.080000
v 0.039696 0.001950 -0.080000
v 0.039696 0.001950 0.080000
v 0.039552 0.003896 0.080000
v 0.039314 0.005832 0.080000
v 0.039696 -0.001950 -0.040000
v 0.039696 -0.001950 0.000000
v 0.039696 -0.001950 0.040000
v 0.039552 -0.003896 -0.040000
v 0.039552 -0.003896 0.000000
v 0.039552 -0.003896 0.040000
v 0.039314 -0.005832 -0.040000
v 0.039314 -0.005832 0.000000
v 0.039314 -0.005832 0.040000
v 0.038553 -0.009657 -0.040000
v 0.038553 -0.009657 0.000000
v 0.038553 -0.009657 0.040000
v 0.038032 -0.011537 -0.040000
v 0.038032 -0.011537 0.000000
v 0.038032 -0.011537 0.040000
v 0.037420 -0.013389 -0.040000
v 0.037420 -0.013389 0.000000
v 0.037420 -0.013389 0.040000
v 0.035928 -0.016993 -0.040000
v 0.035928 -0.016993 0.000000
v 0.035928 -0.016993 0.040000
v 0.035051 -0.018735 -0.040000
v 0.035051 -0.018735 0.000000
v 0.035051 -0.018735 0.040000
v 0.034089 -0.020432 -0.040000
v 0.034089 -0.020432 0.000000
v 0.034089 -0.020432 0.040000
v 0.031922 -0.023675 -0.040000
v 0.031922 -0.023675 0.000000
v 0.031922 -0.023675 0.040000
v 0.030722 -0.025213 -0.040000
v 0.030722 -0.025213 0.000000
v 0.030722 -0.025213 0.040000
v 0.029448 -0.026690 -0.040000
v 0.029448 -0.026690 0.000000
v 0.029448 -0.026690 0.040000
v 0.026690 -0.029448 -0.040000
v 0.026690 -0.029448 0.000000
v 0.026690 -0.029448 0.040000
v 0.025213 -0.030722 -0.040000
v 0.025213 -0.030722 0.000000
v 0.025213 -0.030722 0.040000
v 0.023675 -0.031922 -0.040000
v 0.023675 -0.031922 0.000000
v 0.023675 -0.031922 0.040000
v 0.020432 -0.034089 -0.040000
v 0.020432 -0.034089 0.000000
v 0.020432 -0.034089 0.040000
v 0.018735 -0.035051 -0.040000
v 0.018735 -0.035051 0.000000
v 0.018735 -0.035051 0.040000
v 0.016993 -0.035928 -0.040000
v 0.016993 -0.035928 0.000000
v 0.016993 -0.035928 0.040000
v 0.013389 -0.037420 -0.040000
v 0.013389 -0.037420 0.000000
v 0.013389 -0.037420 0.040000
v 0.011537 -0.038032 -0.040000
v 0.011537 -0.038032 0.000000
v 0.011537 -0.038032 0.040000
v 0.009657 -0.038553 -0.040000
v 0.009657 -0.038553 0.000000
v 0.009657 -0.038553 0.040000
v 0.005832 -0.039314 -0.040000
v 0.005832 -0.039314 0.000000
v 0.005832 -0.039314 0.040000
v 0.003896 -0.039552 -0.040000
v 0.003896 -0.039552 0.000000
v 0.003896 -0.039552 0.040000
v 0.001950 -0.039696 -0.040000
v 0.001950 -0.039696 0.000000
v 0.001950 -0.039696 0.040000
v -0.001950 -0.039696 -0.040000
v -0.001950 -0.039696 0.000000
v -0.001950 -0.039696 0.040000
v -0.003896 -0.039552 -0.040000
v -0.003896 -0.039552 0.000000
v -0.003896 -0.039552 0.040000
v -0.005832 -0.039314 -0.040000
v -0.005832 -0.039314 0.000000
v -0.005832 -0.039314 0.040000
v -0.009657 -0.038553 -0.040000
v -0.009657 -0.038553 0.000000
v -0.009657 -0.038553 0.040000
v -0.011537 -0.038032 -0.040000
v -0.011537 -0.038032 0.000000
v -0.011537 -0.038032 0.040000
v -0.013389 -0.037420 -0.040000
v -0.013389 -0.037420 0.000000
v -0.013389 -0.037420 0.040000
v -0.016993 -0.035928 -0.040000
v -0.016993 -0.035928 0.000000
v -0.016993 -0.035928 0.040000
v -0.018735 -0.035051 -0.040000
v -0.018735 -0.035051 0.000000
v -0.018735 -0.035051 0.040000
v -0.020432 -0.034089 -0.040000
v -0.020432 -0.034089 0.000000
v -0.020432 -0.034089 0.040000
v -0.023675 -0.031922 -0.040000
v -0.023675 -0.031922 0.000000
v -0.023675 -0.031922 0.040000
v -0.025213 -0.030722 -0.040000
v -0.025213 -0.030722 0.000000
v -0.025213 -0.030722 0.040000
v -0.026690 -0.029448 -0.040000
v -0.026690 -0.029448 0.000000
v -0.026690 -0.029448 0.040000
v -0.029448 -0.026690 -0.040000
v -0.029448 -0.026690 0.000000
v -0.029448 -0.026690 0.040000
v -0.030722 -0.025213 -0.040000
v -0.030722 -0.025213 0.000000
v -0.030722 -0.025213 0.040000
v -0.031922 -0.023675 -0.040000
v -0.031922 -0.023675 0.000000
v -0.031922 -0.023675 0.040000
v -0.034089 -0.020432 -0.040000
v -0.034089 -0.020432 0.000000
v -0.034089 -0.020432 0.040000
v -0.035051 -0.018735 -0.040000
v -0.035051 -0.018735 0.000000
v -0.035051 -0.018735 0.040000
v -0.035928 -0.016993 -0.040000
v -0.035928 -0.016993 0.000000
v -0.035928 -0.016993 0.040000
v -0.037420 -0.013389 -0.040000
v -0.037420 -0.013389 0.000000
v -0.037420 -0.013389 0.040000
v -0.038032 -0.011537 -0.040000
v -0.038032 -0.011537 0.000000
v -0.038032 -0.011537 0.040000
v -0.038553 -0.009657 -0.040000
v -0.038553 -0.009657 0.000000
v -0.038553 -0.009657 0.040000
v -0.039314 -0.005832 -0.040000
v -0.039314 -0.005832 0.000000
v -0.039314 -0.005832 0.040000
v -0.039552 -0.003896 -0.040000
v -0.039552 -0.003896 0.000000
v -0.039552 -0.003896 0.040000
v -0.039696 -0.001950 -0.040000
v -0.039696 -0.001950 0.000000
v -0.039696 -0.001950 0.040000
v -0.039696 0.001950 -0.040000
v -0.039696 0.001950 0.000000
v -0.039696 0.001950 0.040000
v -0.039552 0.003896 -0.040000
v -0.039552 0.003896 0.000000
v -0.039552 0.003896 0.040000
v -0.039314 0.005832 -0.040000
v -0.039314 0.005832 0.000000
v -0.039314 0.005832 0.040000
v -0.038553 0.009657 -0.040000
v -0.038553 0.009657 0.000000
v -0.038553 0.009657 0.040000
v -0.038032 0.011537 -0.040000
v -0.038032 0.011537 0.000000
v -0.038032 0.011537 0.040000
v -0.037420 0.013389 -0.040000
v -0.037420 0.013389 0.000000
v -0.037420 0.013389 0.040000
v -0.035928 0.016993 -0.040000
v -0.035928 0.016993 0.000000
v -0.035928 0.016993 0.040000
v -0.035051 0.018735 -0.040000
v -0.035051 0.018735 0.000000
v -0.035051 0.018735 0.040000
v -0.034089 0.020432 -0.040000
v -0.034089 0.020432 0.000000
v -0.034089 0.020432 0.040000
v -0.031922 0.023675 -0.040000
v -0.031922 0.023675 0.000000
v -0.031922 0.023675 0.040000
v -0.030722 0.025213 -0.040000
v -0.030722 0.025213 0.000000
v -0.030722 0.025213 0.040000
v -0.029448 0.026690 -0.040000
v -0.029448 0.026690 0.000000
v -0.029448 0.026690 0.040000
v -0.026690 0.029448 -0.040000
v -0.026690 0.029448 0.000000
v -0.026690 0.029448 0.040000
v -0.025213 0.030722 -0.040000
v -0.025213 0.030722 0.000000
v -0.025213 0.030722 0.040000
v -0.023675 0.031922 -0.040000
v -0.023675 0.031922 0.000000
v -0.023675 0.031922 0.040000
v -0.020432 0.034089 -0.040000
v -0.020432 0.034089 0.000000
v -0.020432 0.034089 0.040000
v -0.018735 0.035051 -0.040000
v -0.018735 0.035051 0.000000
v -0.018735 0.035051 0.040000
v -0.016993 0.035928 -0.040000
v -0.016993 0.035928 0.000000
v -0.016993 0.035928 0.040000
v -0.013389 0.037420 -0.040000
v -0.013389 0.037420 0.000000
v -0.013389 0.037420 0.040000
v -0.011537 0.038032 -0.040000
v -0.011537 0.038032 0.000000
v -0.011537 0.038032 0.040000
v -0.009657 0.038553 -0.040000
v -0.009657 0.038553 0.000000
v -0.009657 0.038553 0.040000
v -0.005832 0.039314 -0.040000
v -0.005832 0.039314 0.000000
v -0.005832 0.039314 0.040000
v -0.003896 0.039552 -0.040000
v -0.003896 0.039552 0.000000
v -0.003896 0.039552 0.040000
v -0.001950 0.039696 -0.040000
v -0.001950 0.039696 0.000000
v -0.001950 0.039696 0.040000
v 0.001950 0.039696 -0.040000
v 0.001950 0.039696 0.000000
v 0.001950 0.039696 0.040000
v 0.003896 0.039552 -0.040000
v 0.003896 0.039552 0.000000
v 0.003896 0.039552 0.040000
v 0.005832 0.039314 -0.040000
v 0.005832 0.039314 0.000000
v 0.005832 0.039314 0.040000
v 0.009657 0.038553 -0.040000
v 0.009657 0.038553 0.000000
v 0.009657 0.038553 0.040000
v 0.011537 0.038032 -0.040000
v 0.011537 0.038032 0.000000
v 0.011537 0.038032 0.040000
v 0.013389 0.037420 -0.040000
v 0.013389 0.037420 0.000000
v 0.013389 0.037420 0.040000
v 0.016993 0.035928 -0.040000
v 0.016993 0.035928 0.000000
v 0.016993 0.035928 0.040000
v 0.018735 0.035051 -0.040000
v 0.018735 0.035051 0.000000
v 0.018735 0.035051 0.040000
v 0.020432 0.034089 -0.040000
v 0.020432 0.034089 0.000000
v 0.020432 0.034089 0.040000
v 0.023675 0.031922 -0.040000
v 0.023675 0.031922 0.000000
v 0.023675 0.031922 0.040000
v 0.025213 0.030722 -0.040000
v 0.025213 0.030722 0.000000
v 0.025213 0.030722 0.040000
v 0.026690 0.029448 -0.040000
v 0.026690 0.029448 0.000000
v 0.026690 0.029448 0.040000
v 0.029448 0.026690 -0.040000
v 0.029448 0.026690 0.000000
v 0.029448 0.026690 0.040000
v 0.030722 0.025213 -0.040000
v 0.030722 0.025213 0.000000
v 0.030722 0.025213 0.040000
v 0.031922 0.023675 -0.040000
v 0.031922 0.023675 0.000000
v 0.031922 0.023675 0.040000
v 0.034089 0.020432 -0.040000
v 0.034089 0.020432 0.000000
v 0.034089 0.020432 0.040000
v 0.035051 0.018735 -0.040000
v 0.035051 0.018735 0.000000
v 0.035051 0.018735 0.040000
v 0.035928 0.016993 -0.040000
v 0.035928 0.016993 0.000000
v 0.035928 0.016993 0.040000
v 0.000000 -0.000000 0.080000
v 0.030237 -0.006015 0.080000
v 0.025436 -0.002505 0.080000
v 0.030830 -0.000000 0.080000
v 0.025436 0.002505 0.080000
v 0.030237 0.006015 0.080000
v 0.024458 0.007419 0.080000
v 0.028483 0.011798 0.080000
v 0.022541 0.012048 0.080000
v 0.025634 0.017128 0.080000
v 0.019757 0.016214 0.080000
v 0.021800 0.021800 0.080000
v 0.016214 0.019757 0.080000
v 0.017128 0.025634 0.080000
v 0.012048 0.022541 0.080000
v 0.011798 0.028483 0.080000
v 0.007419 0.024458 0.080000
v 0.006015 0.030237 0.080000
v 0.002505 0.025436 0.080000
v -0.000000 0.030830 0.080000
v -0.002505 0.025436 0.080000
v -0.006015 0.030237 0.080000
v -0.007419 0.024458 0.080000
v -0.011798 0.028483 0.080000
v -0.012048 0.022541 0.080000
v -0.017128 0.025634 0.080000
v -0.016214 0.019757 0.080000
v -0.021800 0.021800 0.080000
v -0.019757 0.016214 0.080000
v -0.025634 0.017128 0.080000
v -0.022541 0.012048 0.080000
v -0.028483 0.011798 0.080000
v -0.024458 0.007419 0.080000
v -0.030237 0.006015 0.080000
v -0.025436 0.002505 0.080000
v -0.030830 0.000000 0.080000
v -0.025436 -0.002505 0.080000
v -0.030237 -0.006015 0.080000
v -0.024458 -0.007419 0.080000
v -0.028483 -0.011798 0.080000
v -0.022541 -0.012048 0.080000
v -0.025634 -0.017128 0.080000
v -0.019757 -0.016214 0.080000
v -0.021800 -0.021800 0.080000
v -0.016214 -0.019757 0.080000
v -0.017128 -0.025634 0.080000
v -0.012048 -0.022541 0.080000
v -0.011798 -0.028483 0.080000
v -0.007419 -0.024458 0.080000
v -0.006015 -0.030237 0.080000
v -0.002505 -0.025436 0.080000
v -0.000000 -0.030830 0.080000
v 0.002505 -0.025436 0.080000
v 0.006015 -0.030237 0.080000
v 0.007419 -0.024458 0.080000
v 0.011798 -0.028483 0.080000
v 0.012048 -0.022541 0.080000
v 0.017128 -0.025634 0.080000
v 0.016214 -0.019757 0.080000
v 0.021800 -0.021800 0.080000
v 0.019757 -0.016214 0.080000
v 0.025634 -0.017128 0.080000
v 0.022541 -0.012048 0.080000
v 0.028483 -0.011798 0.080000
v 0.024458 -0.007419 0.080000
v 0.037420 0.013389 -0.040000
v 0.037420 0.013389 0.000000
v 0.037420 0.013389 0.040000
v 0.038032 0.011537 -0.040000
v 0.038032 0.011537 0.000000
v 0.038032 0.011537 0.040000
v 0.038553 0.009657 -0.040000
v 0.038553 0.009657 0.000000
v 0.038553 0.009657 0.040000
v 0.039314 0.005832 -0.040000
v 0.039314 0.005832 0.000000
v 0.039314 0.005832 0.040000
v 0.039552 0.003896 -0.040000
v 0.039552 0.003896 0.000000
v 0.039552 0.003896 0.040000
v 0.039696 0.001950 -0.040000
v 0.039696 0.001950 0.000000
v 0.039696 0.001950 0.040000
v 0.000000 -0.000000 -0.080000
v 0.030830 0.000000 -0.080000
v 0.025436 -0.002505 -0.080000
v 0.030237 -0.006015 -0.080000
v 0.024458 -0.007419 -0.080000
v 0.028483 -0.011798 -0.080000
v 0.022541 -0.012048 -0.080000
v 0.025634 -0.017128 -0.080000
v 0.019757 -0.016214 -0.080000
v 0.021800 -0.021800 -0.080000
v 0.016214 -0.019757 -0.080000
v 0.017128 -0.025634 -0.080000
v 0.012048 -0.022541 -0.080000
v 0.011798 -0.028483 -0.080000
v 0.007419 -0.024458 -0.080000
v 0.006015 -0.030237 -0.080000
v 0.002505 -0.025436 -0.080000
v 0.000000 -0.030830 -0.080000
v -0.002505 -0.025436 -0.080000
v -0.006015 -0.030237 -0.080000
v -0.007419 -0.024458 -0.080000
v -0.011798 -0.028483 -0.080000
v -0.012048 -0.022541 -0.080000
v -0.017128 -0.025634 -0.080000
v -0.016214 -0.019757 -0.080000
v -0.021800 -0.021800 -0.080000
v -0.019757 -0.016214 -0.080000
v -0.025634 -0.017128 -0.080000
v -0.022541 -0.012048 -0.080000
v -0.028483 -0.011798 -0.080000
v -0.024458 -0.007419 -0.080000
v -0.030237 -0.006015 -0.080000
v -0.025436 -0.002505 -0.080000
v -0.030830 0.000000 -0.080000
v -0.025436 0.002505 -0.080000
v -0.030237 0.006015 -0.080000
v -0.024458 0.007419 -0.080000
v -0.028483 0.011798 -0.080000
v -0.022541 0.012048 -0.080000
v -0.025634 0.017128 -0.080000
v -0.019757 0.016214 -0.080000
v -0.021800 0.021800 -0.080000
v -0.016214 0.019757 -0.080000
v -0.017128 0.025634 -0.080000
v -0.012048 0.022541 -0.080000
v -0.011798 0.028483 -0.080000
v -0.007419 0.024458 -0.080000
v -0.006015 0.030237 -0.080000
v -0.002505 0.025436 -0.080000
v 0.000000 0.030830 -0.080000
v 0.002505 0.025436 -0.080000
v 0.006015 0.030237 -0.080000
v 0.007419 0.024458 -0.080000
v 0.011798 0.028483 -0.080000
v 0.012048 0.022541 -0.080000
v 0.017128 0.025634 -0.080000
v 0.016214 0.019757 -0.080000
v 0.021800 0.021800 -0.080000
v 0.019757 0.016214 -0.080000
v 0.025634 0.017128 -0.080000
v 0.022541 0.012048 -0.080000
v 0.028483 0.011798 -0.080000
v 0.024458 0.007419 -0.080000
v 0.030237 0.006015 -0.080000
v 0.025436 0.002505 -0.080000
s 0
f 353 354 357 356
f 354 355 358 357
f 356 357 360 359
f 357 358 361 360
f 1 71 353 65
f 71 72 354 353
f 72 73 355 354
f 73 2 70 355
f 355 70 69 358
f 358 69 68 361
f 361 68 4 74
f 360 361 74 75
f 359 360 75 76
f 67 359 76 3
f 66 356 359 67
f 65 353 356 66
f 362 363 366 365
f 363 364 367 366
f 365 366 369 368
f 366 367 370 369
f 3 76 362 77
f 76 75 363 362
f 75 74 364 363
f 74 4 82 364
f 364 82 81 367
f 367 81 80 370
f 370 80 6 83
f 369 370 83 84
f 368 369 84 85
f 79 368 85 5
f 78 365 368 79
f 77 362 365 78
f 371 372 375 374
f 372 373 376 375
f 374 375 378 377
f 375 376 379 378
f 5 85 371 86
f 85 84 372 371
f 84 83 373 372
f 83 6 91 373
f 373 91 90 376
f 376 90 89 379
f 379 89 8 92
f 378 379 92 93
f 377 378 93 94
f 88 377 94 7
f 87 374 377 88
f 86 371 374 87
f 380 381 384 383
f 381 382 385 384
f 383 384 387 386
f 384 385 388 387
f 7 94 380 95
f 94 93 381 380
f 93 92 382 381
f 92 8 100 382
f 382 100 99 385
f 385 99 98 388
f 388 98 10 101
f 387 388 101 102
f 386 387 102 103
f 97 386 103 9
f 96 383 386 97
f 95 380 383 96
f 389 390 393 392
f 390 391 394 393
f 392 393 396 395
f 393 394 397 396
f 9 103 389 104
f 103 102 390 389
f 102 101 391 390
f 101 10 109 391
f 391 109 108 394
f 394 108 107 397
f 397 107 12 110
f 396 397 110 111
f 395 396 111 112
f 106 395 112 11
f 105 392 395 106
f 104 389 392 105
f 398 399 402 401
f 399 400 403 402
f 401 402 405 404
f 402 403 406 405
f 11 112 398 113
f 112 111 399 398
f 111 110 400 399
f 110 12 118 400
f 400 118 117 403
f 403 117 116 406
f 406 116 14 119
f 405 406 119 120
f 404 405 120 121
f 115 404 121 13
f 114 401 404 115
f 113 398 401 114
f 407 408 411 410
f 408 409 412 411
f 410 411 414 413
f 411 412 415 414
f 13 121 407 122
f 121 120 408 407
f 120 119 409 408
f 119 14 127 409
f 409 127 126 412
f 412 126 125 415
f 415 125 16 128
f 414 415 128 129
f 413 414 129 130
f 124 413 130 15
f 123 410 413 124
f 122 407 410 123
f 416 417 420 419
f 417 418 421 420
f 419 420 423 422
f 420 421 424 423
f 15 130 416 131
f 130 129 417 416
f 129 128 418 417
f 128 16 136 418
f 418 136 135 421
f 421 135 134 424
f 424 134 18 137
f 423 424 137 138
f 422 423 138 139
f 133 422 139 17
f 132 419 422 133
f 131 416 419 132
f 425 426 429 428
f 426 427 430 429
f 428 429 432 431
f 429 430 433 432
f 17 139 425 140
f 139 138 426 425
f 138 137 427 426
f 137 18 145 427
f 427 145 144 430
f 430 144 143 433
f 433 143 20 146
f 432 433 146 147
f 431 432 147 148
f 142 431 148 19
f 141 428 431 142
f 140 425 428 141
f 434 435 438 437
f 435 436 439 438
f 437 438 441 440
f 438 439 442 441
f 19 148 434 149
f 148 147 435 434
f 147 146 436 435
f 146 20 154 436
f 436 154 153 439
f 439 153 152 442
f 442 152 22 155
f 441 442 155 156
f 440 441 156 157
f 151 440 157 21
f 150 437 440 151
f 149 434 437 150
f 443 444 447 446
f 444 445 448 447
f 446 447 450 449
f 447 448 451 450
f 21 157 443 158
f 157 156 444 443
f 156 155 445 444
f 155 22 163 445
f 445 163 162 448
f 448 162 161 451
f 451 161 24 164
f 450 451 164 165
f 449 450 165 166
f 160 449 166 23
f 159 446 449 160
f 158 443 446 159
f 452 453 456 455
f 453 454 457 456
f 455 456 459 458
f 456 457 460 459
f 23 166 452 167
f 166 165 453 452
f 165 164 454 453
f 164 24 172 454
f 454 172 171 457
f 457 171 170 460
f 460 170 26 173
f 459 460 173 174
f 458 459 174 175
f 169 458 175 25
f 168 455 458 169
f 167 452 455 168
f 461 462 465 464
f 462 463 466 465
f 464 465 468 467
f 465 466 469 468
f 25 175 461 176
f 175 174 462 461
f 174 173 463 462
f 173 26 181 463
f 463 181 180 466
f 466 180 179 469
f 469 179 28 182
f 468 469 182 183
f 467 468 183 184
f 178 467 184 27
f 177 464 467 178
f 176 461 464 177
f 470 471 474 473
f 471 472 475 474
f 473 474 477 476
f 474 475 478 477
f 27 184 470 185
f 184 183 471 470
f 183 182 472 471
f 182 28 190 472
f 472 190 189 475
f 475 189 188 478
f 478 188 30 191
f 477 478 191 192
f 476 477 192 193
f 187 476 193 29
f 186 473 476 187
f 185 470 473 186
f 479 480 483 482
f 480 481 484 483
f 482 483 486 485
f 483 484 487 486
f 29 193 479 194
f 193 192 480 479
f 192 191 481 480
f 191 30 199 481
f 481 199 198 484
f 484 198 197 487
f 487 197 32 200
f 486 487 200 201
f 485 486 201 202
f 196 485 202 31
f 195 482 485 196
f 194 479 482 195
f 488 489 492 491
f 489 490 493 492
f 491 492 495 494
f 492 493 496 495
f 31 202 488 203
f 202 201 489 488
f 201 200 490 489
f 200 32 208 490
f 490 208 207 493
f 493 207 206 496
f 496 206 34 209
f 495 496 209 210
f 494 495 210 211
f 205 494 211 33
f 204 491 494 205
f 203 488 491 204
f 497 498 501 500
f 498 499 502 501
f 500 501 504 503
f 501 502 505 504
f 33 211 497 212
f 211 210 498 497
f 210 209 499 498
f 209 34 217 499
f 499 217 216 502
f 502 216 215 505
f 505 215 36 218
f 504 505 218 219
f 503 504 219 220
f 214 503 220 35
f 213 500 503 214
f 212 497 500 213
f 506 507 510 509
f 507 508 511 510
f 509 510 513 512
f 510 511 514 513
f 35 220 506 221
f 220 219 507 506
f 219 218 508 507
f 218 36 226 508
f 508 226 225 511
f 511 225 224 514
f 514 224 38 227
f 513 514 227 228
f 512 513 228 229
f 223 512 229 37
f 222 509 512 223
f 221 506 509 222
f 515 516 519 518
f 516 517 520 519
f 518 519 522 521
f 519 520 523 522
f 37 229 515 230
f 229 228 516 515
f 228 227 517 516
f 227 38 235 517
f 517 235 234 520
f 520 234 233 523
f 523 233 40 236
f 522 523 236 237
f 521 522 237 238
f 232 521 238 39
f 231 518 521 232
f 230 515 518 231
f 524 525 528 527
f 525 526 529 528
f 527 528 531 530
f 528 529 532 531
f 39 238 524 239
f 238 237 525 524
f 237 236 526 525
f 236 40 244 526
f 526 244 243 529
f 529 243 242 532
f 532 242 42 245
f 531 532 245 246
f 530 531 246 247
f 241 530 247 41
f 240 527 530 241
f 239 524 527 240
f 533 534 537 536
f 534 535 538 537
f 536 537 540 539
f 537 538 541 540
f 41 247 533 248
f 247 246 534 533
f 246 245 535 534
f 245 42 253 535
f 535 253 252 538
f 538 252 251 541
f 541 251 44 254
f 540 541 254 255
f 539 540 255 256
f 250 539 256 43
f 249 536 539 250
f 248 533 536 249
f 542 543 546 545
f 543 544 547 546
f 545 546 549 548
f 546 547 550 549
f 43 256 542 257
f 256 255 543 542
f 255 254 544 543
f 254 44 262 544
f 544 262 261 547
f 547 261 260 550
f 550 260 46 263
f 549 550 263 264
f 548 549 264 265
f 259 548 265 45
f 258 545 548 259
f 257 542 545 258
f 551 552 555 554
f 552 553 556 555
f 554 555 558 557
f 555 556 559 558
f 45 265 551 266
f 265 264 552 551
f 264 263 553 552
f 263 46 271 553
f 553 271 270 556
f 556 270 269 559
f 559 269 48 272
f 558 559 272 273
f 557 558 273 274
f 268 557 274 47
f 267 554 557 268
f 266 551 554 267
f 560 561 564 563
f 561 562 565 564
f 563 564 567 566
f 564 565 568 567
f 47 274 560 275
f 274 273 561 560
f 273 272 562 561
f 272 48 280 562
f 562 280 279 565
f 565 279 278 568
f 568 278 50 281
f 567 568 281 282
f 566 567 282 283
f 277 566 283 49
f 276 563 566 277
f 275 560 563 276
f 569 570 573 572
f 570 571 574 573
f 572 573 576 575
f 573 574 577 576
f 49 283 569 284
f 283 282 570 569
f 282 281 571 570
f 281 50 289 571
f 571 289 288 574
f 574 288 287 577
f 577 287 52 290
f 576 577 290 291
f 575 576 291 292
f 286 575 292 51
f 285 572 575 286
f 284 569 572 285
f 578 579 582 581
f 579 580 583 582
f 581 582 585 584
f 582 583 586 585
f 51 292 578 293
f 292 291 579 578
f 291 290 580 579
f 290 52 298 580
f 580 298 297 583
f 583 297 296 586
f 586 296 54 299
f 585 586 299 300
f 584 585 300 301
f 295 584 301 53
f 294 581 584 295
f 293 578 581 294
f 587 588 591 590
f 588 589 592 591
f 590 591 594 593
f 591 592 595 594
f 53 301 587 302
f 301 300 588 587
f 300 299 589 588
f 299 54 307 589
f 589 307 306 592
f 592 306 305 595
f 595 305 56 308
f 594 595 308 309
f 593 594 309 310
f 304 593 310 55
f 303 590 593 304
f 302 587 590 303
f 596 597 600 599
f 597 598 601 600
f 599 600 603 602
f 600 601 604 603
f 55 310 596 311
f 310 309 597 596
f 309 308 598 597
f 308 56 316 598
f 598 316 315 601
f 601 315 314 604
f 604 314 58 317
f 603 604 317 318
f 602 603 318 319
f 313 602 319 57
f 312 599 602 313
f 311 596 599 312
f 605 606 609 608
f 606 607 610 609
f 608 609 612 611
f 609 610 613 612
f 57 319 605 320
f 319 318 606 605
f 318 317 607 606
f 317 58 325 607
f 607 325 324 610
f 610 324 323 613
f 613 323 60 326
f 612 613 326 327
f 611 612 327 328
f 322 611 328 59
f 321 608 611 322
f 320 605 608 321
f 614 615 618 617
f 615 616 619 618
f 617 618 621 620
f 618 619 622 621
f 59 328 614 329
f 328 327 615 614
f 327 326 616 615
f 326 60 334 616
f 616 334 333 619
f 619 333 332 622
f 622 332 62 335
f 621 622 335 336
f 620 621 336 337
f 331 620 337 61
f 330 617 620 331
f 329 614 617 330
f 624 625 623 687
f 626 627 623 625
f 628 629 623 627
f 630 631 623 629
f 632 633 623 631
f 634 635 623 633
f 636 637 623 635
f 638 639 623 637
f 640 641 623 639
f 642 643 623 641
f 644 645 623 643
f 646 647 623 645
f 648 649 623 647
f 650 651 623 649
f 652 653 623 651
f 654 655 623 653
f 656 657 623 655
f 658 659 623 657
f 660 661 623 659
f 662 663 623 661
f 664 665 623 663
f 666 667 623 665
f 668 669 623 667
f 670 671 623 669
f 672 673 623 671
f 674 675 623 673
f 676 677 623 675
f 678 679 623 677
f 680 681 623 679
f 682 683 623 681
f 684 685 623 683
f 686 687 623 685
f 4 68 624 82
f 68 69 625 624
f 82 624 687 81
f 2 350 626 70
f 350 351 627 626
f 70 626 625 69
f 64 341 628 352
f 341 342 629 628
f 352 628 627 351
f 62 332 630 343
f 332 333 631 630
f 343 630 629 342
f 60 323 632 334
f 323 324 633 632
f 334 632 631 333
f 58 314 634 325
f 314 315 635 634
f 325 634 633 324
f 56 305 636 316
f 305 306 637 636
f 316 636 635 315
f 54 296 638 307
f 296 297 639 638
f 307 638 637 306
f 52 287 640 298
f 287 288 641 640
f 298 640 639 297
f 50 278 642 289
f 278 279 643 642
f 289 642 641 288
f 48 269 644 280
f 269 270 645 644
f 280 644 643 279
f 46 260 646 271
f 260 261 647 646
f 271 646 645 270
f 44 251 648 262
f 251 252 649 648
f 262 648 647 261
f 42 242 650 253
f 242 243 651 650
f 253 650 649 252
f 40 233 652 244
f 233 234 653 652
f 244 652 651 243
f 38 224 654 235
f 224 225 655 654
f 235 654 653 234
f 36 215 656 226
f 215 216 657 656
f 226 656 655 225
f 34 206 658 217
f 206 207 659 658
f 217 658 657 216
f 32 197 660 208
f 197 198 661 660
f 208 660 659 207
f 30 188 662 199
f 188 189 663 662
f 199 662 661 198
f 28 179 664 190
f 179 180 665 664
f 190 664 663 189
f 26 170 666 181
f 170 171 667 666
f 181 666 665 180
f 24 161 668 172
f 161 162 669 668
f 172 668 667 171
f 22 152 670 163
f 152 153 671 670
f 163 670 669 162
f 20 143 672 154
f 143 144 673 672
f 154 672 671 153
f 18 134 674 145
f 134 135 675 674
f 145 674 673 144
f 16 125 676 136
f 125 126 677 676
f 136 676 675 135
f 14 116 678 127
f 116 117 679 678
f 127 678 677 126
f 12 107 680 118
f 107 108 681 680
f 118 680 679 117
f 10 98 682 109
f 98 99 683 682
f 109 682 681 108
f 8 89 684 100
f 89 90 685 684
f 100 684 683 99
f 6 80 686 91
f 80 81 687 686
f 91 686 685 90
f 688 689 692 691
f 689 690 693 692
f 691 692 695 694
f 692 693 696 695
f 61 337 688 338
f 337 336 689 688
f 336 335 690 689
f 335 62 343 690
f 690 343 342 693
f 693 342 341 696
f 696 341 64 344
f 695 696 344 345
f 694 695 345 346
f 340 694 346 63
f 339 691 694 340
f 338 688 691 339
f 697 698 701 700
f 698 699 702 701
f 700 701 704 703
f 701 702 705 704
f 63 346 697 347
f 346 345 698 697
f 345 344 699 698
f 344 64 352 699
f 699 352 351 702
f 702 351 350 705
f 705 350 2 73
f 704 705 73 72
f 703 704 72 71
f 349 703 71 1
f 348 700 703 349
f 347 697 700 348
f 707 708 706 770
f 709 710 706 708
f 711 712 706 710
f 713 714 706 712
f 715 716 706 714
f 717 718 706 716
f 719 720 706 718
f 721 722 706 720
f 723 724 706 722
f 725 726 706 724
f 727 728 706 726
f 729 730 706 728
f 731 732 706 730
f 733 734 706 732
f 735 736 706 734
f 737 738 706 736
f 739 740 706 738
f 741 742 706 740
f 743 744 706 742
f 745 746 706 744
f 747 748 706 746
f 749 750 706 748
f 751 752 706 750
f 753 754 706 752
f 755 756 706 754
f 757 758 706 756
f 759 760 706 758
f 761 762 706 760
f 763 764 706 762
f 765 766 706 764
f 767 768 706 766
f 769 770 706 768
f 1 65 707 349
f 65 66 708 707
f 349 707 770 348
f 3 77 709 67
f 77 78 710 709
f 67 709 708 66
f 5 86 711 79
f 86 87 712 711
f 79 711 710 78
f 7 95 713 88
f 95 96 714 713
f 88 713 712 87
f 9 104 715 97
f 104 105 716 715
f 97 715 714 96
f 11 113 717 106
f 113 114 718 717
f 106 717 716 105
f 13 122 719 115
f 122 123 720 719
f 115 719 718 114
f 15 131 721 124
f 131 132 722 721
f 124 721 720 123
f 17 140 723 133
f 140 141 724 723
f 133 723 722 132
f 19 149 725 142
f 149 150 726 725
f 142 725 724 141
f 21 158 727 151
f 158 159 728 727
f 151 727 726 150
f 23 167 729 160
f 167 168 730 729
f 160 729 728 159
f 25 176 731 169
f 176 177 732 731
f 169 731 730 168
f 27 185 733 178
f 185 186 734 733
f 178 733 732 177
f 29 194 735 187
f 194 195 736 735
f 187 735 734 186
f 31 203 737 196
f 203 204 738 737
f 196 737 736 195
f 33 212 739 205
f 212 213 740 739
f 205 739 738 204
f 35 221 741 214
f 221 222 742 741
f 214 741 740 213
f 37 230 743 223
f 230 231 744 743
f 223 743 742 222
f 39 239 745 232
f 239 240 746 745
f 232 745 744 231
f 41 248 747 241
f 248 249 748 747
f 241 747 746 240
f 43 257 749 250
f 257 258 750 749
f 250 749 748 249
f 45 266 751 259
f 266 267 752 751
f 259 751 750 258
f 47 275 753 268
f 275 276 754 753
f 268 753 752 267
f 49 284 755 277
f 284 285 756 755
f 277 755 754 276
f 51 293 757 286
f 293 294 758 757
f 286 757 756 285
f 53 302 759 295
f 302 303 760 759
f 295 759 758 294
f 55 311 761 304
f 311 312 762 761
f 304 761 760 303
f 57 320 763 313
f 320 321 764 763
f 313 763 762 312
f 59 329 765 322
f 329 330 766 765
f 322 765 764 321
f 61 338 767 331
f 338 339 768 767
f 331 767 766 330
f 63 347 769 340
f 347 348 770 769
f 340 769 768 339
